<?xml version="1.0" encoding="UTF-8" standalone="no"?>
<!DOCTYPE svg PUBLIC "-//W3C//DTD SVG 1.1//EN" "http://www.w3.org/Graphics/SVG/1.1/DTD/svg11.dtd">
<svg width="100%" height="100%" viewBox="0 0 1080 1080" version="1.1" xmlns="http://www.w3.org/2000/svg" xmlns:xlink="http://www.w3.org/1999/xlink" xml:space="preserve" xmlns:serif="http://www.serif.com/" style="fill-rule:evenodd;clip-rule:evenodd;stroke-linejoin:round;stroke-miterlimit:2;">
    <g transform="matrix(1.06391,0,0,1.06391,-45.2996,-41.7044)">
        <path d="M1057.7,69.653C1057.7,52.845 1044.05,39.199 1027.24,39.199L73.032,39.199C56.224,39.199 42.578,52.845 42.578,69.653L42.578,1023.86C42.578,1040.67 56.224,1054.32 73.032,1054.32L1027.24,1054.32C1044.05,1054.32 1057.7,1040.67 1057.7,1023.86L1057.7,69.653Z" fill="${preview}"/>
    </g>
    <g transform="matrix(1.03339,0,0,1.07346,-18.0317,-75.302)">
        <path d="M1050.94,717.274C1050.94,711.567 1046.13,706.934 1040.2,706.934L39.803,706.934C33.874,706.934 29.061,711.567 29.061,717.274L29.061,1041.27C29.061,1046.98 33.874,1051.62 39.803,1051.62L1040.2,1051.62C1046.13,1051.62 1050.94,1046.98 1050.94,1041.27L1050.94,717.274Z" fill="${base}"/>
    </g>
    <g transform="matrix(1.03787,0,0,1.15483,-12.0324,-62.0976)">
        <path d="M907.66,85.292C907.66,82.233 904.896,79.75 901.493,79.75L162.287,79.75C158.883,79.75 156.12,82.233 156.12,85.292L156.12,628.401C156.12,631.459 158.883,633.942 162.287,633.942L901.493,633.942C904.896,633.942 907.66,631.459 907.66,628.401L907.66,85.292Z"/>
    </g>
    <g transform="matrix(0.950221,0,0,0.97625,50.367,18.6673)">
        <path d="M1041.48,753.229C1041.48,735.138 1026.39,720.451 1007.8,720.451L780.485,720.451C761.898,720.451 746.809,735.138 746.809,753.229L746.809,818.786C746.809,836.877 761.898,851.564 780.485,851.564L1007.8,851.564C1026.39,851.564 1041.48,836.877 1041.48,818.786L1041.48,753.229Z" fill="${button}"/>
    </g>
    <g transform="matrix(0.950221,0,0,0.97625,50.367,192.66)">
        <path d="M1041.48,753.229C1041.48,735.138 1026.39,720.451 1007.8,720.451L780.485,720.451C761.898,720.451 746.809,735.138 746.809,753.229L746.809,818.786C746.809,836.877 761.898,851.564 780.485,851.564L1007.8,851.564C1026.39,851.564 1041.48,836.877 1041.48,818.786L1041.48,753.229Z" fill="${button}"/>
    </g>
</svg>
