<?xml version="1.0" encoding="UTF-8" standalone="no"?>
<!DOCTYPE svg PUBLIC "-//W3C//DTD SVG 1.1//EN" "http://www.w3.org/Graphics/SVG/1.1/DTD/svg11.dtd">
<svg width="100%" height="100%" viewBox="0 0 1080 1080" version="1.1" xmlns="http://www.w3.org/2000/svg" xmlns:xlink="http://www.w3.org/1999/xlink" xml:space="preserve" xmlns:serif="http://www.serif.com/">
    <!-- Window frame -->
    <path d="M964.431,317.647C964.431,196.792 866.312,98.673 745.457,98.673L302.103,98.673C181.248,98.673 83.129,196.792 83.129,317.647L83.129,755.594C83.129,876.449 181.248,974.568 302.103,974.568L745.457,974.568C866.312,974.568 964.431,876.449 964.431,755.594L964.431,317.647Z" fill="#ff00e4"/>
    <!-- Preview Background -->
    <path d="M895.494,305.82C895.494,238.492 840.832,183.83 773.504,183.83L302.441,183.83C235.112,183.83 180.451,238.492 180.451,305.82L180.451,549.8C180.451,617.128 235.112,671.79 302.441,671.79L773.504,671.79C840.832,671.79 895.494,617.128 895.494,549.8L895.494,305.82Z" fill="#a5a5a5"/>
    <!-- Preview -->
    <path d="M754.919,330.826C754.919,278.791 712.673,236.546 660.638,236.546L411.252,236.546C359.217,236.546 316.971,278.791 316.971,330.826L316.971,519.387C316.971,571.421 359.217,613.667 411.252,613.667L660.638,613.667C712.673,613.667 754.919,571.421 754.919,519.387L754.919,330.826Z" fill="#100a10"/>
    <!-- Bottom Docks -->
    <g transform="matrix(1,0,0,1,33.7922,5.40676)">
        <path d="M846.834,742.753C846.834,708.064 818.67,679.9 783.98,679.9L221.677,679.9C186.987,679.9 158.824,708.064 158.824,742.753L158.824,868.461C158.824,903.15 186.987,931.314 221.677,931.314L783.98,931.314C818.67,931.314 846.834,903.15 846.834,868.461L846.834,742.753Z" fill="#555555"/>
    </g>
    <!-- Button -->
    <path d="M850.889,773.166C850.889,753.024 834.535,736.671 814.393,736.671L727.885,736.671C707.742,736.671 691.389,753.024 691.389,773.166L691.389,846.158C691.389,866.3 707.742,882.653 727.885,882.653L814.393,882.653C834.535,882.653 850.889,866.3 850.889,846.158L850.889,773.166Z" fill="#929292"/>
</svg>
